<svg width="14" height="15" viewBox="0 0 14 15" fill="none" xmlns="http://www.w3.org/2000/svg">
<path d="M13.9067 6.56144C13.8511 6.41823 13.7679 6.28739 13.6617 6.17644L7.82833 0.343107C7.71956 0.234329 7.59042 0.148041 7.44829 0.0891709C7.30617 0.0303006 7.15384 0 7 0C6.68932 0 6.39135 0.123419 6.17167 0.343107C6.06289 0.451885 5.9766 0.581024 5.91773 0.72315C5.85886 0.865275 5.82856 1.0176 5.82856 1.17144C5.82856 1.48213 5.95198 1.78009 6.17167 1.99977L10.0217 5.83811H1.16667C0.857247 5.83811 0.560501 5.96102 0.341709 6.17982C0.122917 6.39861 0 6.69535 0 7.00477C0 7.31419 0.122917 7.61094 0.341709 7.82973C0.560501 8.04852 0.857247 8.17144 1.16667 8.17144H10.0217L6.17167 12.0098C6.06232 12.1182 5.97552 12.2473 5.91629 12.3894C5.85706 12.5316 5.82657 12.6841 5.82657 12.8381C5.82657 12.9921 5.85706 13.1446 5.91629 13.2868C5.97552 13.4289 6.06232 13.558 6.17167 13.6664C6.28012 13.7758 6.40916 13.8626 6.55133 13.9218C6.6935 13.981 6.84599 14.0115 7 14.0115C7.15401 14.0115 7.3065 13.981 7.44867 13.9218C7.59084 13.8626 7.71988 13.7758 7.82833 13.6664L13.6617 7.83311C13.7679 7.72215 13.8511 7.59132 13.9067 7.44811C14.0234 7.16407 14.0234 6.84548 13.9067 6.56144Z" fill="#9C9C9C"/>
</svg>
